<?xml version="1.0" encoding="UTF-8"?>
<svg id="_레이어_1" data-name="레이어_1" xmlns="http://www.w3.org/2000/svg" viewBox="0 0 1069.04 1069.75">
  <defs>
    <style>
      .cls-1 {
        fill: #c4c3bb;
      }

      .cls-2 {
        fill: #1c3c4f;
      }

      .cls-3 {
        fill: #204052;
      }

      .cls-4 {
        fill: #1d4150;
      }

      .cls-5 {
        fill: #bdc2ba;
      }

      .cls-6 {
        fill: #274b57;
      }

      .cls-7 {
        fill: #c0c1bb;
      }

      .cls-8 {
        fill: #1c3b4b;
      }

      .cls-9 {
        fill: #8f9a9a;
      }

      .cls-10 {
        fill: #1e4253;
      }

      .cls-11 {
        fill: #bbbcb2;
      }

      .cls-12 {
        fill: #55d0de;
      }

      .cls-13 {
        fill: #c3c1b4;
      }

      .cls-14 {
        fill: #b93e3d;
      }

      .cls-15 {
        fill: #bebbb1;
      }

      .cls-16 {
        fill: #969f99;
      }

      .cls-17 {
        fill: #99a8a4;
      }

      .cls-18 {
        fill: #1c4d5c;
      }

      .cls-19 {
        fill: #1b4657;
      }

      .cls-20 {
        fill: #134053;
      }

      .cls-21 {
        fill: #204051;
      }

      .cls-22 {
        fill: #174250;
      }

      .cls-23 {
        fill: #204050;
      }

      .cls-24 {
        fill: #1e3c4c;
      }

      .cls-25 {
        fill: #224353;
      }

      .cls-26 {
        fill: #214455;
      }

      .cls-27 {
        fill: #1e4252;
      }

      .cls-28 {
        fill: #264354;
      }

      .cls-29 {
        fill: #1c3b48;
      }

      .cls-30 {
        fill: #173e4f;
      }

      .cls-31 {
        fill: #1f3d4e;
      }

      .cls-32 {
        fill: #173b4c;
      }

      .cls-33 {
        fill: #203f4e;
      }

      .cls-34 {
        fill: #e4e0d3;
      }

      .cls-35 {
        fill: #c4c4c0;
      }

      .cls-36 {
        fill: #194855;
      }

      .cls-37 {
        fill: #566e79;
      }

      .cls-38 {
        fill: #48c8d6;
      }

      .cls-39 {
        fill: #173d4f;
      }

      .cls-40 {
        fill: #1b5060;
      }

      .cls-41 {
        fill: #b1b6ae;
      }

      .cls-42 {
        fill: #144154;
      }

      .cls-43 {
        fill: #e6e6de;
      }

      .cls-44 {
        fill: #d7d4cb;
      }

      .cls-45 {
        fill: #aebbb7;
      }

      .cls-46 {
        fill: #5f727a;
      }

      .cls-47 {
        fill: #1f3c4e;
      }

      .cls-48 {
        fill: #e4e2d5;
      }

      .cls-49 {
        fill: #aeb6ae;
      }

      .cls-50 {
        fill: #234554;
      }

      .cls-51 {
        fill: #e5e1d4;
      }

      .cls-52 {
        fill: #e2e0d5;
      }

      .cls-53 {
        fill: #1b3d4c;
      }

      .cls-54 {
        fill: #204053;
      }

      .cls-55 {
        fill: #e3dfd3;
      }

      .cls-56 {
        fill: #dbd8cd;
      }

      .cls-57 {
        fill: #56d2df;
      }

      .cls-58 {
        fill: #e4e1d4;
      }

      .cls-59 {
        fill: #1f3d4c;
      }

      .cls-60 {
        fill: #1d3e51;
      }

      .cls-61 {
        fill: #244253;
      }

      .cls-62 {
        fill: #50d0e0;
      }

      .cls-63 {
        fill: #203c4a;
      }

      .cls-64 {
        fill: #234352;
      }

      .cls-65 {
        fill: #e5e1d2;
      }

      .cls-66 {
        fill: #1b414f;
      }

      .cls-67 {
        fill: #234555;
      }

      .cls-68 {
        fill: #8a9a9d;
      }

      .cls-69 {
        fill: #1f4351;
      }

      .cls-70 {
        fill: #1c4352;
      }

      .cls-71 {
        fill: #1b4858;
      }

      .cls-72 {
        fill: #164960;
      }

      .cls-73 {
        fill: #697c83;
      }

      .cls-74 {
        fill: #193c4e;
      }

      .cls-75 {
        fill: #e0ded1;
      }

      .cls-76 {
        fill: #1f3c4c;
      }

      .cls-77 {
        fill: #5f747b;
      }

      .cls-78 {
        fill: #ed5c5b;
      }

      .cls-79 {
        fill: #dfe1db;
      }

      .cls-80 {
        fill: #738389;
      }

      .cls-81 {
        fill: #d9dad4;
      }

      .cls-82 {
        fill: #183f50;
      }

      .cls-83 {
        fill: #193948;
      }

      .cls-84 {
        fill: #dfdfd2;
      }

      .cls-85 {
        fill: #163848;
      }

      .cls-86 {
        fill: #b74042;
      }

      .cls-87 {
        fill: #1e3e51;
      }

      .cls-88 {
        fill: #123f53;
      }

      .cls-89 {
        fill: #184559;
      }

      .cls-90 {
        fill: #e1dfd2;
      }

      .cls-91 {
        fill: #398492;
      }

      .cls-92 {
        fill: #214353;
      }

      .cls-93 {
        fill: #c2c1b7;
      }

      .cls-94 {
        fill: #1e4251;
      }

      .cls-95 {
        fill: #e3e0d4;
      }

      .cls-96 {
        fill: #e2ded2;
      }

      .cls-97 {
        fill: #73858d;
      }

      .cls-98 {
        fill: #b4beb6;
      }

      .cls-99 {
        fill: #e0ddd0;
      }

      .cls-100 {
        fill: #8b9a99;
      }

      .cls-101 {
        fill: #50ccde;
      }

      .cls-102 {
        fill: #e5e3d7;
      }

      .cls-103 {
        fill: #677d84;
      }

      .cls-104 {
        fill: #1c4353;
      }

      .cls-105 {
        fill: #1b4f60;
      }

      .cls-106 {
        fill: #174a5f;
      }

      .cls-107 {
        fill: #234c5f;
      }

      .cls-108 {
        fill: #bfc2bf;
      }

      .cls-109 {
        fill: #51ccdd;
      }

      .cls-110 {
        fill: #1f3d49;
      }

      .cls-111 {
        fill: #b83d42;
      }

      .cls-112 {
        fill: #637e83;
      }

      .cls-113 {
        fill: #234859;
      }

      .cls-114 {
        fill: #f45757;
      }

      .cls-115 {
        fill: #e5e2d6;
      }

      .cls-116 {
        fill: #e4e2d4;
      }

      .cls-117 {
        fill: #214051;
      }

      .cls-118 {
        fill: #1e4254;
      }

      .cls-119 {
        fill: #1f5062;
      }

      .cls-120 {
        fill: #b2bdb8;
      }

      .cls-121 {
        fill: #b43c3e;
      }

      .cls-122 {
        fill: #1b3e4e;
      }

      .cls-123 {
        fill: #254a5b;
      }

      .cls-124 {
        fill: #174050;
      }

      .cls-125 {
        fill: #244b5f;
      }

      .cls-126 {
        fill: #8b4b52;
      }

      .cls-127 {
        fill: #e2dfd3;
      }

      .cls-128 {
        fill: #63797f;
      }

      .cls-129 {
        fill: #56d1de;
      }

      .cls-130 {
        fill: #195361;
      }

      .cls-131 {
        fill: #51d1df;
      }

      .cls-132 {
        fill: #e2e0d0;
      }

      .cls-133 {
        fill: #5c727a;
      }

      .cls-134 {
        fill: #5e7074;
      }

      .cls-135 {
        fill: #327e90;
      }

      .cls-136 {
        fill: #4dccde;
      }

      .cls-137 {
        fill: #dfe2dc;
      }

      .cls-138 {
        fill: #919b9d;
      }

      .cls-139 {
        fill: #ddd7ce;
      }

      .cls-140 {
        fill: #e0dfd3;
      }

      .cls-141 {
        fill: #c0c1ba;
      }

      .cls-142 {
        fill: #1f4657;
      }

      .cls-143 {
        fill: #cfd0cd;
      }

      .cls-144 {
        fill: #657476;
      }

      .cls-145 {
        fill: #8c4449;
      }

      .cls-146 {
        fill: #e4e1d5;
      }

      .cls-147 {
        fill: #e1ddd1;
      }

      .cls-148 {
        fill: #1c4250;
      }

      .cls-149 {
        fill: #506973;
      }

      .cls-150 {
        fill: #e3e1d7;
      }

      .cls-151 {
        fill: #5a7379;
      }

      .cls-152 {
        fill: #214252;
      }

      .cls-153 {
        fill: #aab7b3;
      }

      .cls-154 {
        fill: #304a57;
      }

      .cls-155 {
        fill: #818f93;
      }

      .cls-156 {
        fill: #dfddd1;
      }

      .cls-157 {
        fill: #164158;
      }

      .cls-158 {
        fill: #223e4a;
      }

      .cls-159 {
        fill: #e4e2d6;
      }

      .cls-160 {
        fill: #50cedc;
      }

      .cls-161 {
        fill: #174e5b;
      }

      .cls-162 {
        fill: #697f85;
      }

      .cls-163 {
        fill: #1f3e4d;
      }

      .cls-164 {
        fill: #c3bdb6;
      }

      .cls-165 {
        fill: #6e878b;
      }

      .cls-166 {
        fill: #8c999c;
      }

      .cls-167 {
        fill: #b4bcba;
      }

      .cls-168 {
        fill: #204355;
      }

      .cls-169 {
        fill: #e4e1d7;
      }

      .cls-170 {
        fill: #889799;
      }

      .cls-171 {
        fill: #223e4b;
      }

      .cls-172 {
        fill: #1e3b49;
      }

      .cls-173 {
        fill: #9ca8a8;
      }

      .cls-174 {
        fill: #223f4e;
      }

      .cls-175 {
        fill: #b3bec0;
      }

      .cls-176 {
        fill: #1d424e;
      }

      .cls-177 {
        fill: #c2c4ba;
      }

      .cls-178 {
        fill: #ef5c5c;
      }

      .cls-179 {
        fill: #607e86;
      }

      .cls-180 {
        fill: #6a8082;
      }

      .cls-181 {
        fill: #183a48;
      }

      .cls-182 {
        fill: #184154;
      }

      .cls-183 {
        fill: #19495f;
      }

      .cls-184 {
        fill: #c1c2b8;
      }

      .cls-185 {
        fill: #abb1b0;
      }

      .cls-186 {
        fill: #f05a57;
      }

      .cls-187 {
        fill: #e3ded2;
      }

      .cls-188 {
        fill: #95a4a5;
      }

      .cls-189 {
        fill: #ba3b40;
      }

      .cls-190 {
        fill: #50cdde;
      }

      .cls-191 {
        fill: #a2adab;
      }

      .cls-192 {
        fill: #274757;
      }

      .cls-193 {
        fill: #193a48;
      }

      .cls-194 {
        fill: #1e3d4b;
      }

      .cls-195 {
        fill: #4f646b;
      }

      .cls-196 {
        fill: #e3dfd2;
      }

      .cls-197 {
        fill: #153a4f;
      }

      .cls-198 {
        fill: #704048;
      }

      .cls-199 {
        fill: #ef5556;
      }

      .cls-200 {
        fill: #1f3e4c;
      }

      .cls-201 {
        fill: #495d67;
      }

      .cls-202 {
        fill: #1d404e;
      }

      .cls-203 {
        fill: #e4e2d8;
      }

      .cls-204 {
        fill: #b2bcb7;
      }

      .cls-205 {
        fill: #babeb6;
      }

      .cls-206 {
        fill: #325562;
      }

      .cls-207 {
        fill: #1c5260;
      }

      .cls-208 {
        fill: #576b71;
      }

      .cls-209 {
        fill: #193d4e;
      }

      .cls-210 {
        fill: #acb5b4;
      }

      .cls-211 {
        fill: #728784;
      }

      .cls-212 {
        fill: #e3ded1;
      }

      .cls-213 {
        fill: #194254;
      }

      .cls-214 {
        fill: #174456;
      }

      .cls-215 {
        fill: #425e6d;
      }

      .cls-216 {
        fill: #8a9a9c;
      }

      .cls-217 {
        fill: #e5e1d5;
      }

      .cls-218 {
        fill: #cfd2ca;
      }

      .cls-219 {
        fill: #ddd9cf;
      }

      .cls-220 {
        fill: #31889a;
      }

      .cls-221 {
        fill: #53d0de;
      }

      .cls-222 {
        fill: #c6c5bb;
      }

      .cls-223 {
        fill: #9eaaa4;
      }

      .cls-224 {
        fill: #1a404f;
      }

      .cls-225 {
        fill: #4fcbd8;
      }

      .cls-226 {
        fill: #1a3e4c;
      }

      .cls-227 {
        fill: #193f51;
      }

      .cls-228 {
        fill: #b4b7af;
      }

      .cls-229 {
        fill: #bdbbb3;
      }

      .cls-230 {
        fill: #3d5b68;
      }

      .cls-231 {
        fill: #f15c58;
      }

      .cls-232 {
        fill: #e1dfd1;
      }

      .cls-233 {
        fill: #1e3f52;
      }

      .cls-234 {
        fill: #b83c40;
      }

      .cls-235 {
        fill: #bfbfb7;
      }

      .cls-236 {
        fill: #9da6a9;
      }

      .cls-237 {
        fill: #e3e0d3;
      }

      .cls-238 {
        fill: #53d2dd;
      }

      .cls-239 {
        fill: #e2e2de;
      }

      .cls-240 {
        fill: #984849;
      }

      .cls-241 {
        fill: #1b3c4c;
      }

      .cls-242 {
        fill: #e9e6db;
      }

      .cls-243 {
        fill: #234453;
      }

      .cls-244 {
        fill: #1d455a;
      }

      .cls-245 {
        fill: #3c90a2;
      }

      .cls-246 {
        fill: #253c4a;
      }

      .cls-247 {
        fill: #b1babd;
      }

      .cls-248 {
        fill: #e0dfd2;
      }

      .cls-249 {
        fill: #183e4f;
      }

      .cls-250 {
        fill: #879899;
      }

      .cls-251 {
        fill: #b2b8b1;
      }

      .cls-252 {
        fill: #e2ded1;
      }

      .cls-253 {
        fill: #1a3c4f;
      }

      .cls-254 {
        fill: #53d2db;
      }

      .cls-255 {
        fill: #52cfdf;
      }

      .cls-256 {
        fill: #e3e0d1;
      }

      .cls-257 {
        fill: #b1bcb8;
      }

      .cls-258 {
        fill: #1d3f50;
      }

      .cls-259 {
        fill: #e2dfd2;
      }

      .cls-260 {
        fill: #1d4356;
      }

      .cls-261 {
        fill: #1b3b4b;
      }

      .cls-262 {
        fill: #707e88;
      }

      .cls-263 {
        fill: #234250;
      }

      .cls-264 {
        fill: #e2decf;
      }
    </style>
  </defs>
  <rect class="cls-65" width="1069.04" height="1069.75"/>
  <rect class="cls-64" x="724.9" y="844.12" width="33.69" height="33.69"/>
  <rect class="cls-176" x="691.21" y="844.12" width="33.69" height="33.69"/>
  <rect class="cls-180" x="657.52" y="844.12" width="33.69" height="33.69"/>
  <rect class="cls-154" x="623.83" y="844.12" width="33.69" height="33.69"/>
  <rect class="cls-74" x="590.15" y="844.12" width="33.69" height="33.69"/>
  <rect class="cls-4" x="421.71" y="844.12" width="33.69" height="33.69"/>
  <rect class="cls-224" x="388.02" y="844.12" width="33.69" height="33.69"/>
  <rect class="cls-128" x="354.34" y="844.12" width="33.69" height="33.69"/>
  <rect class="cls-202" x="320.65" y="844.12" width="33.69" height="33.69"/>
  <rect class="cls-74" x="286.96" y="844.12" width="33.69" height="33.69"/>
  <rect class="cls-168" x="758.58" y="810.44" width="33.69" height="33.69"/>
  <rect class="cls-205" x="724.9" y="810.44" width="33.69" height="33.69"/>
  <rect class="cls-184" x="691.21" y="810.44" width="33.69" height="33.69"/>
  <rect class="cls-13" x="657.52" y="810.44" width="33.69" height="33.69"/>
  <rect class="cls-222" x="623.83" y="810.44" width="33.69" height="33.69"/>
  <rect class="cls-7" x="590.15" y="810.44" width="33.69" height="33.69"/>
  <rect class="cls-152" x="556.46" y="810.44" width="33.69" height="33.69"/>
  <rect class="cls-113" x="455.4" y="810.44" width="33.69" height="33.69"/>
  <rect class="cls-177" x="421.71" y="810.44" width="33.69" height="33.69"/>
  <rect class="cls-141" x="388.02" y="810.44" width="33.69" height="33.69"/>
  <rect class="cls-93" x="354.34" y="810.44" width="33.69" height="33.69"/>
  <rect class="cls-1" x="320.65" y="810.44" width="33.69" height="33.69"/>
  <rect class="cls-7" x="286.96" y="810.44" width="33.69" height="33.69"/>
  <rect class="cls-241" x="253.27" y="810.44" width="33.69" height="33.69"/>
  <rect class="cls-260" x="792.27" y="776.75" width="33.69" height="33.69"/>
  <rect class="cls-235" x="758.58" y="776.75" width="33.69" height="33.69"/>
  <rect class="cls-116" x="724.9" y="776.75" width="33.69" height="33.69"/>
  <rect class="cls-51" x="691.21" y="776.75" width="33.69" height="33.69"/>
  <rect class="cls-237" x="657.52" y="776.75" width="33.69" height="33.69"/>
  <rect class="cls-237" x="623.83" y="776.75" width="33.69" height="33.69"/>
  <rect class="cls-146" x="590.15" y="776.75" width="33.69" height="33.69"/>
  <rect class="cls-134" x="556.46" y="776.75" width="33.69" height="33.69"/>
  <rect class="cls-73" x="522.77" y="776.75" width="33.69" height="33.69"/>
  <rect class="cls-26" x="455.4" y="776.75" width="33.69" height="33.69"/>
  <rect class="cls-56" x="421.71" y="776.75" width="33.69" height="33.69"/>
  <rect class="cls-237" x="388.02" y="776.75" width="33.69" height="33.69"/>
  <rect class="cls-237" x="354.34" y="776.75" width="33.69" height="33.69"/>
  <rect class="cls-217" x="320.65" y="776.75" width="33.69" height="33.69"/>
  <rect class="cls-169" x="286.96" y="776.75" width="33.69" height="33.69"/>
  <rect class="cls-229" x="253.27" y="776.75" width="33.69" height="33.69"/>
  <rect class="cls-193" x="219.59" y="776.75" width="33.69" height="33.69"/>
  <rect class="cls-182" x="825.96" y="743.06" width="33.69" height="33.69"/>
  <rect class="cls-15" x="792.27" y="743.06" width="33.69" height="33.69"/>
  <rect class="cls-256" x="758.58" y="743.06" width="33.69" height="33.69"/>
  <rect class="cls-115" x="724.9" y="743.06" width="33.69" height="33.69"/>
  <rect class="cls-142" x="691.21" y="743.06" width="33.69" height="33.69"/>
  <rect class="cls-65" x="657.52" y="743.06" width="33.69" height="33.69"/>
  <rect class="cls-259" x="623.83" y="743.06" width="33.69" height="33.69"/>
  <rect class="cls-95" x="590.15" y="743.06" width="33.69" height="33.69"/>
  <rect class="cls-247" x="556.46" y="743.06" width="33.69" height="33.69"/>
  <rect class="cls-103" x="522.77" y="743.06" width="33.69" height="33.69"/>
  <rect class="cls-243" x="455.4" y="743.06" width="33.69" height="33.69"/>
  <rect class="cls-48" x="421.71" y="743.06" width="33.69" height="33.69"/>
  <rect class="cls-96" x="388.02" y="743.06" width="33.69" height="33.69"/>
  <rect class="cls-252" x="354.34" y="743.06" width="33.69" height="33.69"/>
  <rect class="cls-244" x="320.65" y="743.06" width="33.69" height="33.69"/>
  <rect class="cls-55" x="286.96" y="743.06" width="33.69" height="33.69"/>
  <rect class="cls-237" x="253.27" y="743.06" width="33.69" height="33.69"/>
  <rect class="cls-164" x="219.59" y="743.06" width="33.69" height="33.69"/>
  <rect class="cls-249" x="185.9" y="743.06" width="33.69" height="33.69"/>
  <rect class="cls-20" x="859.65" y="709.37" width="33.69" height="33.69"/>
  <rect class="cls-11" x="825.96" y="709.37" width="33.69" height="33.69"/>
  <rect class="cls-237" x="792.27" y="709.37" width="33.69" height="33.69"/>
  <rect class="cls-102" x="758.58" y="709.37" width="33.69" height="33.69"/>
  <rect class="cls-10" x="724.9" y="709.37" width="33.69" height="33.69"/>
  <rect class="cls-179" x="691.21" y="709.37" width="33.69" height="33.69"/>
  <rect class="cls-34" x="657.52" y="709.37" width="33.69" height="33.69"/>
  <rect class="cls-96" x="623.83" y="709.37" width="33.69" height="33.69"/>
  <rect class="cls-43" x="590.15" y="709.37" width="33.69" height="33.69"/>
  <rect class="cls-123" x="556.46" y="709.37" width="33.69" height="33.69"/>
  <rect class="cls-28" x="455.4" y="709.37" width="33.69" height="33.69"/>
  <rect class="cls-95" x="421.71" y="709.37" width="33.69" height="33.69"/>
  <rect class="cls-259" x="388.02" y="709.37" width="33.69" height="33.69"/>
  <rect class="cls-187" x="354.34" y="709.37" width="33.69" height="33.69"/>
  <rect class="cls-35" x="320.65" y="709.37" width="33.69" height="33.69"/>
  <rect class="cls-8" x="286.96" y="709.37" width="33.69" height="33.69"/>
  <rect class="cls-248" x="253.27" y="709.37" width="33.69" height="33.69"/>
  <rect class="cls-96" x="219.59" y="709.37" width="33.69" height="33.69"/>
  <rect class="cls-139" x="185.9" y="709.37" width="33.69" height="33.69"/>
  <rect class="cls-118" x="152.21" y="709.37" width="33.69" height="33.69"/>
  <rect class="cls-191" x="893.33" y="675.69" width="33.69" height="33.69"/>
  <rect class="cls-162" x="859.65" y="675.69" width="33.69" height="33.69"/>
  <rect class="cls-58" x="825.96" y="675.69" width="33.69" height="33.69"/>
  <rect class="cls-159" x="792.27" y="675.69" width="33.69" height="33.69"/>
  <rect class="cls-148" x="758.58" y="675.69" width="33.69" height="33.69"/>
  <rect class="cls-112" x="724.9" y="675.69" width="33.69" height="33.69"/>
  <rect class="cls-51" x="691.21" y="675.69" width="33.69" height="33.69"/>
  <rect class="cls-55" x="657.52" y="675.69" width="33.69" height="33.69"/>
  <rect class="cls-96" x="623.83" y="675.69" width="33.69" height="33.69"/>
  <rect class="cls-206" x="590.15" y="675.69" width="33.69" height="33.69"/>
  <rect class="cls-192" x="556.46" y="675.69" width="33.69" height="33.69"/>
  <rect class="cls-236" x="455.4" y="675.69" width="33.69" height="33.69"/>
  <rect class="cls-23" x="421.71" y="675.69" width="33.69" height="33.69"/>
  <rect class="cls-99" x="388.02" y="675.69" width="33.69" height="33.69"/>
  <rect class="cls-147" x="354.34" y="675.69" width="33.69" height="33.69"/>
  <rect class="cls-212" x="320.65" y="675.69" width="33.69" height="33.69"/>
  <rect class="cls-108" x="286.96" y="675.69" width="33.69" height="33.69"/>
  <rect class="cls-24" x="253.27" y="675.69" width="33.69" height="33.69"/>
  <rect class="cls-156" x="219.59" y="675.69" width="33.69" height="33.69"/>
  <rect class="cls-75" x="185.9" y="675.69" width="33.69" height="33.69"/>
  <rect class="cls-219" x="152.21" y="675.69" width="33.69" height="33.69"/>
  <rect class="cls-21" x="118.52" y="675.69" width="33.69" height="33.69"/>
  <rect class="cls-37" x="893.33" y="642" width="33.69" height="33.69"/>
  <rect class="cls-5" x="859.65" y="642" width="33.69" height="33.69"/>
  <rect class="cls-140" x="825.96" y="642" width="33.69" height="33.69"/>
  <rect class="cls-69" x="792.27" y="642" width="33.69" height="33.69"/>
  <rect class="cls-211" x="758.58" y="642" width="33.69" height="33.69"/>
  <rect class="cls-264" x="724.9" y="642" width="33.69" height="33.69"/>
  <rect class="cls-242" x="691.21" y="642" width="33.69" height="33.69"/>
  <rect class="cls-50" x="657.52" y="642" width="33.69" height="33.69"/>
  <rect class="cls-27" x="623.83" y="642" width="33.69" height="33.69"/>
  <rect class="cls-223" x="590.15" y="642" width="33.69" height="33.69"/>
  <rect class="cls-143" x="421.71" y="642" width="33.69" height="33.69"/>
  <rect class="cls-200" x="388.02" y="642" width="33.69" height="33.69"/>
  <rect class="cls-29" x="354.34" y="642" width="33.69" height="33.69"/>
  <rect class="cls-127" x="320.65" y="642" width="33.69" height="33.69"/>
  <rect class="cls-203" x="286.96" y="642" width="33.69" height="33.69"/>
  <rect class="cls-218" x="253.27" y="642" width="33.69" height="33.69"/>
  <rect class="cls-31" x="219.59" y="642" width="33.69" height="33.69"/>
  <rect class="cls-90" x="185.9" y="642" width="33.69" height="33.69"/>
  <rect class="cls-96" x="152.21" y="642" width="33.69" height="33.69"/>
  <rect class="cls-33" x="118.52" y="642" width="33.69" height="33.69"/>
  <rect class="cls-151" x="893.33" y="608.31" width="33.69" height="33.69"/>
  <rect class="cls-41" x="859.65" y="608.31" width="33.69" height="33.69"/>
  <rect class="cls-232" x="825.96" y="608.31" width="33.69" height="33.69"/>
  <rect class="cls-19" x="792.27" y="608.31" width="33.69" height="33.69"/>
  <rect class="cls-169" x="758.58" y="608.31" width="33.69" height="33.69"/>
  <rect class="cls-44" x="724.9" y="608.31" width="33.69" height="33.69"/>
  <rect class="cls-125" x="691.21" y="608.31" width="33.69" height="33.69"/>
  <rect class="cls-47" x="320.65" y="608.31" width="33.69" height="33.69"/>
  <rect class="cls-173" x="286.96" y="608.31" width="33.69" height="33.69"/>
  <rect class="cls-150" x="253.27" y="608.31" width="33.69" height="33.69"/>
  <rect class="cls-25" x="219.59" y="608.31" width="33.69" height="33.69"/>
  <rect class="cls-16" x="185.9" y="608.31" width="33.69" height="33.69"/>
  <rect class="cls-259" x="152.21" y="608.31" width="33.69" height="33.69"/>
  <rect class="cls-117" x="118.52" y="608.31" width="33.69" height="33.69"/>
  <rect class="cls-133" x="893.33" y="574.62" width="33.69" height="33.69"/>
  <rect class="cls-49" x="859.65" y="574.62" width="33.69" height="33.69"/>
  <rect class="cls-196" x="825.96" y="574.62" width="33.69" height="33.69"/>
  <rect class="cls-22" x="792.27" y="574.62" width="33.69" height="33.69"/>
  <rect class="cls-174" x="758.58" y="574.62" width="33.69" height="33.69"/>
  <rect class="cls-104" x="724.9" y="574.62" width="33.69" height="33.69"/>
  <rect class="cls-72" x="623.83" y="574.62" width="33.69" height="33.69"/>
  <rect class="cls-106" x="590.15" y="574.62" width="33.69" height="33.69"/>
  <rect class="cls-42" x="556.46" y="574.62" width="33.69" height="33.69"/>
  <rect class="cls-88" x="522.77" y="574.62" width="33.69" height="33.69"/>
  <rect class="cls-82" x="489.08" y="574.62" width="33.69" height="33.69"/>
  <rect class="cls-157" x="455.4" y="574.62" width="33.69" height="33.69"/>
  <rect class="cls-183" x="421.71" y="574.62" width="33.69" height="33.69"/>
  <rect class="cls-107" x="388.02" y="574.62" width="33.69" height="33.69"/>
  <rect class="cls-76" x="286.96" y="574.62" width="33.69" height="33.69"/>
  <rect class="cls-194" x="253.27" y="574.62" width="33.69" height="33.69"/>
  <rect class="cls-66" x="219.59" y="574.62" width="33.69" height="33.69"/>
  <rect class="cls-144" x="185.9" y="574.62" width="33.69" height="33.69"/>
  <rect class="cls-132" x="152.21" y="574.62" width="33.69" height="33.69"/>
  <rect class="cls-233" x="118.52" y="574.62" width="33.69" height="33.69"/>
  <rect class="cls-77" x="893.33" y="540.94" width="33.69" height="33.69"/>
  <rect class="cls-228" x="859.65" y="540.94" width="33.69" height="33.69"/>
  <rect class="cls-52" x="825.96" y="540.94" width="33.69" height="33.69"/>
  <rect class="cls-230" x="792.27" y="540.94" width="33.69" height="33.69"/>
  <rect class="cls-6" x="657.52" y="540.94" width="33.69" height="33.69"/>
  <rect class="cls-185" x="556.46" y="540.94" width="33.69" height="33.69"/>
  <rect class="cls-165" x="522.77" y="540.94" width="33.69" height="33.69"/>
  <rect class="cls-188" x="489.08" y="540.94" width="33.69" height="33.69"/>
  <rect class="cls-9" x="455.4" y="540.94" width="33.69" height="33.69"/>
  <rect class="cls-246" x="354.34" y="540.94" width="33.69" height="33.69"/>
  <rect class="cls-195" x="185.9" y="540.94" width="33.69" height="33.69"/>
  <rect class="cls-237" x="152.21" y="540.94" width="33.69" height="33.69"/>
  <rect class="cls-3" x="118.52" y="540.94" width="33.69" height="33.69"/>
  <rect class="cls-46" x="893.33" y="507.25" width="33.69" height="33.69"/>
  <rect class="cls-251" x="859.65" y="507.25" width="33.69" height="33.69"/>
  <rect class="cls-239" x="825.96" y="507.25" width="33.69" height="33.69"/>
  <rect class="cls-215" x="792.27" y="507.25" width="33.69" height="33.69"/>
  <rect class="cls-89" x="691.21" y="507.25" width="33.69" height="33.69"/>
  <rect class="cls-167" x="556.46" y="507.25" width="33.69" height="33.69"/>
  <rect class="cls-250" x="522.77" y="507.25" width="33.69" height="33.69"/>
  <rect class="cls-45" x="489.08" y="507.25" width="33.69" height="33.69"/>
  <rect class="cls-138" x="455.4" y="507.25" width="33.69" height="33.69"/>
  <rect class="cls-92" x="320.65" y="507.25" width="33.69" height="33.69"/>
  <rect class="cls-201" x="185.9" y="507.25" width="33.69" height="33.69"/>
  <rect class="cls-84" x="152.21" y="507.25" width="33.69" height="33.69"/>
  <rect class="cls-54" x="118.52" y="507.25" width="33.69" height="33.69"/>
  <rect class="cls-87" x="859.65" y="473.56" width="33.69" height="33.69"/>
  <rect class="cls-253" x="825.96" y="473.56" width="33.69" height="33.69"/>
  <rect class="cls-214" x="691.21" y="473.56" width="33.69" height="33.69"/>
  <rect class="cls-78" x="657.52" y="473.56" width="33.69" height="33.69"/>
  <rect class="cls-231" x="623.83" y="473.56" width="33.69" height="33.69"/>
  <rect class="cls-114" x="590.15" y="473.56" width="33.69" height="33.69"/>
  <rect class="cls-240" x="556.46" y="473.56" width="33.69" height="33.69"/>
  <rect class="cls-216" x="522.77" y="473.56" width="33.69" height="33.69"/>
  <rect class="cls-153" x="489.08" y="473.56" width="33.69" height="33.69"/>
  <rect class="cls-126" x="455.4" y="473.56" width="33.69" height="33.69"/>
  <rect class="cls-199" x="421.71" y="473.56" width="33.69" height="33.69"/>
  <rect class="cls-186" x="388.02" y="473.56" width="33.69" height="33.69"/>
  <rect class="cls-178" x="354.34" y="473.56" width="33.69" height="33.69"/>
  <rect class="cls-158" x="320.65" y="473.56" width="33.69" height="33.69"/>
  <rect class="cls-63" x="185.9" y="473.56" width="33.69" height="33.69"/>
  <rect class="cls-2" x="152.21" y="473.56" width="33.69" height="33.69"/>
  <rect class="cls-208" x="118.52" y="473.56" width="33.69" height="33.69"/>
  <rect class="cls-227" x="691.21" y="439.88" width="33.69" height="33.69"/>
  <rect class="cls-189" x="657.52" y="439.88" width="33.69" height="33.69"/>
  <rect class="cls-234" x="623.83" y="439.88" width="33.69" height="33.69"/>
  <rect class="cls-14" x="590.15" y="439.88" width="33.69" height="33.69"/>
  <rect class="cls-145" x="556.46" y="439.88" width="33.69" height="33.69"/>
  <rect class="cls-68" x="522.77" y="439.88" width="33.69" height="33.69"/>
  <rect class="cls-257" x="489.08" y="439.88" width="33.69" height="33.69"/>
  <rect class="cls-198" x="455.4" y="439.88" width="33.69" height="33.69"/>
  <rect class="cls-111" x="421.71" y="439.88" width="33.69" height="33.69"/>
  <rect class="cls-121" x="388.02" y="439.88" width="33.69" height="33.69"/>
  <rect class="cls-86" x="354.34" y="439.88" width="33.69" height="33.69"/>
  <rect class="cls-171" x="320.65" y="439.88" width="33.69" height="33.69"/>
  <rect class="cls-149" x="724.9" y="406.19" width="33.69" height="33.69"/>
  <rect class="cls-213" x="691.21" y="406.19" width="33.69" height="33.69"/>
  <rect class="cls-18" x="657.52" y="406.19" width="33.69" height="33.69"/>
  <rect class="cls-40" x="623.83" y="406.19" width="33.69" height="33.69"/>
  <rect class="cls-130" x="590.15" y="406.19" width="33.69" height="33.69"/>
  <rect class="cls-161" x="556.46" y="406.19" width="33.69" height="33.69"/>
  <rect class="cls-100" x="522.77" y="406.19" width="33.69" height="33.69"/>
  <rect class="cls-204" x="489.08" y="406.19" width="33.69" height="33.69"/>
  <rect class="cls-71" x="455.4" y="406.19" width="33.69" height="33.69"/>
  <rect class="cls-119" x="421.71" y="406.19" width="33.69" height="33.69"/>
  <rect class="cls-207" x="388.02" y="406.19" width="33.69" height="33.69"/>
  <rect class="cls-105" x="354.34" y="406.19" width="33.69" height="33.69"/>
  <rect class="cls-36" x="320.65" y="406.19" width="33.69" height="33.69"/>
  <rect class="cls-263" x="286.96" y="406.19" width="33.69" height="33.69"/>
  <rect class="cls-94" x="724.9" y="372.5" width="33.69" height="33.69"/>
  <rect class="cls-38" x="691.21" y="372.5" width="33.69" height="33.69"/>
  <rect class="cls-160" x="657.52" y="372.5" width="33.69" height="33.69"/>
  <rect class="cls-136" x="623.83" y="372.5" width="33.69" height="33.69"/>
  <rect class="cls-190" x="590.15" y="372.5" width="33.69" height="33.69"/>
  <rect class="cls-220" x="556.46" y="372.5" width="33.69" height="33.69"/>
  <rect class="cls-155" x="522.77" y="372.5" width="33.69" height="33.69"/>
  <rect class="cls-120" x="489.08" y="372.5" width="33.69" height="33.69"/>
  <rect class="cls-135" x="455.4" y="372.5" width="33.69" height="33.69"/>
  <rect class="cls-109" x="421.71" y="372.5" width="33.69" height="33.69"/>
  <rect class="cls-101" x="388.02" y="372.5" width="33.69" height="33.69"/>
  <rect class="cls-255" x="354.34" y="372.5" width="33.69" height="33.69"/>
  <rect class="cls-238" x="320.65" y="372.5" width="33.69" height="33.69"/>
  <rect class="cls-258" x="286.96" y="372.5" width="33.69" height="33.69"/>
  <rect class="cls-67" x="724.9" y="338.81" width="33.69" height="33.69"/>
  <rect class="cls-225" x="691.21" y="338.81" width="33.69" height="33.69"/>
  <rect class="cls-131" x="657.52" y="338.81" width="33.69" height="33.69"/>
  <rect class="cls-62" x="623.83" y="338.81" width="33.69" height="33.69"/>
  <rect class="cls-221" x="590.15" y="338.81" width="33.69" height="33.69"/>
  <rect class="cls-245" x="556.46" y="338.81" width="33.69" height="33.69"/>
  <rect class="cls-170" x="522.77" y="338.81" width="33.69" height="33.69"/>
  <rect class="cls-210" x="489.08" y="338.81" width="33.69" height="33.69"/>
  <rect class="cls-91" x="455.4" y="338.81" width="33.69" height="33.69"/>
  <rect class="cls-12" x="421.71" y="338.81" width="33.69" height="33.69"/>
  <rect class="cls-57" x="388.02" y="338.81" width="33.69" height="33.69"/>
  <rect class="cls-129" x="354.34" y="338.81" width="33.69" height="33.69"/>
  <rect class="cls-254" x="320.65" y="338.81" width="33.69" height="33.69"/>
  <rect class="cls-27" x="286.96" y="338.81" width="33.69" height="33.69"/>
  <rect class="cls-262" x="724.9" y="305.13" width="33.69" height="33.69"/>
  <rect class="cls-172" x="691.21" y="305.13" width="33.69" height="33.69"/>
  <rect class="cls-59" x="657.52" y="305.13" width="33.69" height="33.69"/>
  <rect class="cls-261" x="623.83" y="305.13" width="33.69" height="33.69"/>
  <rect class="cls-122" x="590.15" y="305.13" width="33.69" height="33.69"/>
  <rect class="cls-85" x="556.46" y="305.13" width="33.69" height="33.69"/>
  <rect class="cls-32" x="522.77" y="305.13" width="33.69" height="33.69"/>
  <rect class="cls-181" x="489.08" y="305.13" width="33.69" height="33.69"/>
  <rect class="cls-83" x="455.4" y="305.13" width="33.69" height="33.69"/>
  <rect class="cls-197" x="421.71" y="305.13" width="33.69" height="33.69"/>
  <rect class="cls-30" x="388.02" y="305.13" width="33.69" height="33.69"/>
  <rect class="cls-53" x="354.34" y="305.13" width="33.69" height="33.69"/>
  <rect class="cls-209" x="320.65" y="305.13" width="33.69" height="33.69"/>
  <rect class="cls-124" x="286.96" y="305.13" width="33.69" height="33.69"/>
  <rect class="cls-110" x="623.83" y="271.44" width="33.69" height="33.69"/>
  <rect class="cls-98" x="590.15" y="271.44" width="33.69" height="33.69"/>
  <rect class="cls-81" x="556.46" y="271.44" width="33.69" height="33.69"/>
  <rect class="cls-39" x="522.77" y="271.44" width="33.69" height="33.69"/>
  <rect class="cls-226" x="489.08" y="271.44" width="33.69" height="33.69"/>
  <rect class="cls-137" x="455.4" y="271.44" width="33.69" height="33.69"/>
  <rect class="cls-79" x="421.71" y="271.44" width="33.69" height="33.69"/>
  <rect class="cls-61" x="388.02" y="271.44" width="33.69" height="33.69"/>
  <rect class="cls-163" x="623.83" y="237.75" width="33.69" height="33.69"/>
  <rect class="cls-80" x="590.15" y="237.75" width="33.69" height="33.69"/>
  <rect class="cls-70" x="556.46" y="237.75" width="33.69" height="33.69"/>
  <rect class="cls-17" x="522.77" y="237.75" width="33.69" height="33.69"/>
  <rect class="cls-241" x="455.4" y="237.75" width="33.69" height="33.69"/>
  <rect class="cls-175" x="421.71" y="237.75" width="33.69" height="33.69"/>
  <rect class="cls-60" x="388.02" y="237.75" width="33.69" height="33.69"/>
  <rect class="cls-166" x="590.15" y="204.06" width="33.69" height="33.69"/>
  <rect class="cls-97" x="421.71" y="204.06" width="33.69" height="33.69"/>
</svg>